<?xml version="1.0" encoding="UTF-8" standalone="no"?>
<svg
   version="1.1"
   width="510.70972"
   height="510.71671"
   id="svg57"
   sodipodi:docname="Zion.svg"
   inkscape:version="1.2.1 (9c6d41e410, 2022-07-14, custom)"
   xmlns:inkscape="http://www.inkscape.org/namespaces/inkscape"
   xmlns:sodipodi="http://sodipodi.sourceforge.net/DTD/sodipodi-0.dtd"
   xmlns="http://www.w3.org/2000/svg"
   xmlns:svg="http://www.w3.org/2000/svg">
  <defs
     id="defs61">
    <rect
       x="44.826038"
       y="651.42749"
       width="430.53271"
       height="160.41806"
       id="rect108597" />
  </defs>
  <sodipodi:namedview
     id="namedview59"
     pagecolor="#ffffff"
     bordercolor="#666666"
     borderopacity="1.0"
     inkscape:pageshadow="2"
     inkscape:pageopacity="0.0"
     inkscape:pagecheckerboard="0"
     showgrid="false"
     inkscape:zoom="0.49412645"
     inkscape:cx="52.61811"
     inkscape:cy="87.022259"
     inkscape:window-width="1366"
     inkscape:window-height="711"
     inkscape:window-x="0"
     inkscape:window-y="0"
     inkscape:window-maximized="1"
     inkscape:current-layer="svg57"
     inkscape:showpageshadow="2"
     inkscape:deskcolor="#d1d1d1" />
  <g
     id="Layer1000-6"
     transform="matrix(6.9078894,0,0,6.9078894,-2090.2152,-2011.15)"
     inkscape:export-filename="zion-logo.png"
     inkscape:export-xdpi="142.94"
     inkscape:export-ydpi="142.94">
    <g
       id="Layer1001-7-5"
       transform="translate(42.674052,-50.028207)"
       inkscape:export-filename="/home/braian/Pictures/img/logo.png"
       inkscape:export-xdpi="46.189999"
       inkscape:export-ydpi="46.189999">
      <path
         d="m 296.8724,343.5524 a 35.0877,35.0877 0 0 1 35.0877,35.0877 35.0877,35.0877 0 1 1 -35.0877,-35.0877 z"
         style="fill:#7481a6;fill-rule:evenodd"
         id="path4-5-5" />
      <path
         d="m 296.8724,346.9244 a 31.7157,31.7157 0 0 1 31.7157,31.7157 31.7157,31.7157 0 1 1 -31.7157,-31.7157 z"
         style="fill:#ffffff;fill-rule:evenodd"
         id="path6-3-4" />
      <path
         d="m 296.8724,350.2964 a 28.3437,28.3437 0 0 1 28.3437,28.3437 28.3437,28.3437 0 1 1 -28.3437,-28.3437 z"
         style="fill:#c2c4a6;fill-rule:evenodd"
         id="path8-5-7" />
      <path
         d="m 282.118,354.4573 c -2.3103,4.7417 -3.7124,9.7453 -2.9759,14.8471 1.1225,7.7733 6.4266,14.9111 12.4417,21.7033 0.343,0.3874 0.5082,0.749 0.306,0.8692 0,0 0,0 0,0 -0.2017,0.1267 -0.7117,-0.0328 -1.0552,-0.4147 -6.1065,-6.7983 -11.5065,-13.9188 -12.7407,-21.6968 -0.7781,-4.9028 0.4139,-9.7186 2.4958,-14.3018 0.4981,-0.3513 1.0075,-0.6871 1.5283,-1.0063 z"
         style="fill:#ffffff;fill-rule:evenodd"
         id="path10-6-6" />
      <path
         d="m 284.1252,361.6774 c 0,0 0,0 0,0 0.3584,-0.1604 0.6088,0.0118 0.671,0.3814 1.1695,6.9256 3.7189,14.3308 9.0871,20.5269 5.6841,6.5617 13.3784,11.25 20.7723,15.3803 0.3834,0.2137 0.6451,0.4748 0.56,0.6149 0,0 0,0 0,0 -0.0977,0.1536 -0.516,0.1427 -0.9052,-0.0739 -7.4545,-4.1421 -15.2372,-8.8214 -21.1044,-15.3659 -5.5303,-6.1706 -8.3056,-13.5508 -9.6799,-20.4742 -0.073,-0.3678 0.2541,-0.8223 0.5991,-0.9895 z"
         style="fill:#ffffff;fill-rule:evenodd"
         id="path12-2-5" />
      <path
         d="m 272.5703,381.0751 c 0,0 0,0 0,0 -0.2542,-0.3541 -0.3232,-0.8687 -0.1239,-1.1164 3.6441,-4.519 7.7145,-8.976 13.1118,-11.5501 5.6231,-2.6813 12.4973,-2.8092 19.7504,-1.4837 0.4304,0.0784 0.6772,0.548 0.5859,0.9222 0,0 0,0 0,0 -0.0581,0.3611 -0.4273,0.5078 -0.8336,0.4343 -7.0371,-1.2709 -13.6773,-1.1324 -19.0986,1.5373 -5.2092,2.5661 -9.0873,6.9925 -12.5974,11.4503 -0.1904,0.2414 -0.5469,0.1737 -0.7946,-0.1939 z"
         style="fill:#ffffff;fill-rule:evenodd"
         id="path14-9-6" />
      <path
         d="m 284.5157,404.1384 c -1.3804,-3.6149 -2.5735,-7.4747 -3.0938,-11.5866 -0.7792,-6.1625 0.4231,-12.3872 2.5737,-18.1939 0.1179,-0.3183 0.5079,-0.3077 0.7814,-0.021 0,0 0,0 0,0 0.274,0.2948 0.3377,0.7627 0.2279,1.0834 -1.9622,5.7298 -2.9681,11.8451 -2.0653,17.8996 0.615,4.1208 1.8797,7.9845 3.3169,11.5941 -0.5901,-0.2398 -1.1709,-0.4979 -1.7408,-0.7756 z"
         style="fill:#ffffff;fill-rule:evenodd"
         id="path16-1-9" />
      <path
         d="m 321.9994,382.2187 c 0,0 0,0 0,0 0.1386,0.4822 0.1339,1.0607 -0.0281,1.2961 -3.0868,4.4763 -6.5665,9.314 -11.2959,13.2034 -4.7983,3.946 -10.7041,6.248 -16.7631,7.5265 -0.3321,0.0694 -0.5311,-0.2666 -0.4341,-0.6511 0,0 0,0 0,0 0.103,-0.3881 0.4637,-0.6918 0.794,-0.7704 5.8939,-1.3951 11.6032,-3.806 16.2438,-7.7986 4.5864,-3.9462 7.9841,-8.764 10.9785,-13.2193 0.1577,-0.2347 0.369,-0.0399 0.5049,0.4134 z"
         style="fill:#ffffff;fill-rule:evenodd"
         id="path18-2-3" />
      <path
         d="m 306.2154,405.3956 c -7.4694,-4.2372 -15.2313,-8.8159 -21.7318,-14.8625 -6.6203,-6.1587 -10.666,-13.5353 -13.1707,-20.5269 -0.1286,-0.3591 0.0851,-0.869 0.3517,-1.1098 0,0 0,0 0,0 0.2734,-0.2205 0.4928,-0.0663 0.6124,0.2876 2.3638,7.0228 6.269,14.4514 12.7862,20.6542 6.5389,6.2229 14.4439,10.8992 22.0279,15.2341 -0.2896,0.1126 -0.5817,0.2201 -0.8757,0.3233 z"
         style="fill:#ffffff;fill-rule:evenodd"
         id="path20-7-7" />
      <path
         d="m 285.956,366.7531 c 1.1741,0 2.1314,0.9577 2.1314,2.1319 0,1.1732 -0.9573,2.131 -2.1314,2.131 -1.174,0 -2.1316,-0.9578 -2.1316,-2.131 0,-1.1742 0.9576,-2.1319 2.1316,-2.1319 z"
         style="fill:#ffffff;fill-rule:evenodd"
         id="path22-0-4" />
      <path
         d="m 279.7103,371.2533 c 1.0264,0 1.8644,0.8365 1.8644,1.8635 0,1.0268 -0.838,1.8651 -1.8644,1.8651 -1.0271,0 -1.8642,-0.8383 -1.8642,-1.8651 0,-1.027 0.8371,-1.8635 1.8642,-1.8635 z"
         style="fill:#ffffff;fill-rule:evenodd"
         id="path24-9-5" />
      <path
         d="m 282.9677,378.6525 c 1.0269,0 1.8643,0.8372 1.8643,1.8644 0,1.0268 -0.8374,1.864 -1.8643,1.864 -1.027,0 -1.8647,-0.8372 -1.8647,-1.864 0,-1.0272 0.8377,-1.8644 1.8647,-1.8644 z"
         style="fill:#ffffff;fill-rule:evenodd"
         id="path26-3-2" />
      <path
         d="m 281.9612,385.8174 c 0.8962,0 1.6264,0.7306 1.6264,1.6266 0,0.8958 -0.7302,1.6265 -1.6264,1.6265 -0.8957,0 -1.6264,-0.7307 -1.6264,-1.6265 0,-0.896 0.7307,-1.6266 1.6264,-1.6266 z"
         style="fill:#ffffff;fill-rule:evenodd"
         id="path28-6-5" />
      <path
         d="m 300.407,387.77 c 0.8962,0 1.6265,0.7306 1.6265,1.6266 0,0.8958 -0.7303,1.6265 -1.6265,1.6265 -0.8957,0 -1.6264,-0.7307 -1.6264,-1.6265 0,-0.896 0.7307,-1.6266 1.6264,-1.6266 z"
         style="fill:#ffffff;fill-rule:evenodd"
         id="path30-0-4" />
      <path
         d="m 300.3375,400.0099 c 0.7647,0 1.3883,0.6237 1.3883,1.3884 0,0.7647 -0.6236,1.3884 -1.3883,1.3884 -0.765,0 -1.3886,-0.6237 -1.3886,-1.3884 0,-0.7647 0.6236,-1.3884 1.3886,-1.3884 z"
         style="fill:#ffffff;fill-rule:evenodd"
         id="path32-6-7" />
      <path
         d="m 310.3418,394.7411 c 0.6334,0 1.1501,0.5166 1.1501,1.1498 0,0.6341 -0.5167,1.1509 -1.1501,1.1509 -0.6335,0 -1.1503,-0.5168 -1.1503,-1.1509 0,-0.6332 0.5168,-1.1498 1.1503,-1.1498 z"
         style="fill:#ffffff;fill-rule:evenodd"
         id="path34-2-4" />
      <path
         d="m 275.3001,376.1079 c 0.8469,0 1.5382,0.6907 1.5382,1.5379 0,0.8473 -0.6913,1.5382 -1.5382,1.5382 -0.8477,0 -1.5382,-0.6909 -1.5382,-1.5382 0,-0.8472 0.6905,-1.5379 1.5382,-1.5379 z"
         style="fill:#ffffff;fill-rule:evenodd"
         id="path36-6-4" />
      <path
         d="m 325.1842,377.3188 c -1.68,1.5044 -3.4248,2.9395 -5.2478,4.2762 -7.292,5.3466 -15.2967,7.9358 -22.6342,9.0835 -0.3769,0.059 -0.8378,-0.2464 -1.0242,-0.5537 0,0 0,0 0,0 -0.1653,-0.3098 0.0273,-0.4963 0.3977,-0.5474 7.3415,-1.0036 15.3711,-3.4449 22.6869,-8.6821 2.0059,-1.436 3.9174,-2.9941 5.7524,-4.6355 0.0294,0.3513 0.0528,0.7042 0.0692,1.059 z"
         style="fill:#ffffff;fill-rule:evenodd"
         id="path38-1-3" />
      <path
         d="m 271.566,391.3818 c 5.5293,3.5002 11.7318,6.005 17.7171,8.2227 0.4116,0.152 0.7104,0.3698 0.6479,0.5213 0,0 0,0 0,0 -0.0729,0.1668 -0.4878,0.2203 -0.9056,0.0662 -5.6104,-2.0643 -11.4207,-4.3649 -16.7378,-7.4722 -0.2525,-0.4386 -0.4924,-0.8852 -0.7216,-1.338 z"
         style="fill:#ffffff;fill-rule:evenodd;stroke:#c2c4a6;stroke-width:0.216;stroke-linecap:butt;stroke-linejoin:miter;stroke-dasharray:none"
         id="path40-8-0" />
      <path
         d="m 283.0907,396.2272 c 0.6483,0 1.1771,0.5288 1.1771,1.1771 0,0.6483 -0.5288,1.1771 -1.1771,1.1771 -0.6483,0 -1.177,-0.5288 -1.177,-1.1771 0,-0.6483 0.5287,-1.1771 1.177,-1.1771 z"
         style="fill:#ffffff;fill-rule:evenodd"
         id="path42-7-7" />
      <path
         d="m 284.3745,369.5422 c 0,0 0,0 0,0 0.2761,0.0821 0.8293,-0.0773 1.1647,-0.42 5.5495,-5.6628 10.5357,-11.8599 11.7549,-18.8203 -0.1405,-0.002 -0.2807,-0.005 -0.4217,-0.005 -0.2498,0 -0.499,0.004 -0.7473,0.0101 -1.2124,6.8601 -6.1279,12.9576 -11.5937,18.5302 -0.3293,0.3357 -0.4335,0.6228 -0.1569,0.7055 z"
         style="fill:#ffffff;fill-rule:evenodd"
         id="path44-9-8" />
    </g>
    <text
       xml:space="preserve"
       transform="translate(53.513538,-238.4752)"
       id="text108595"
       style="font-size:40px;line-height:1.25;font-family:Qhytsdakx;-inkscape-font-specification:Qhytsdakx;white-space:pre;shape-inside:url(#rect108597);display:inline" />
  </g>
  <path
     d="M 88.619874,89.41611 H 402.05119 L 208.24412,352.78223 h 72.27604 c 19.13764,0 46.18877,-1.93472 61.95288,-14.15068 12.15311,-9.42215 21.16317,-21.37969 27.43528,-35.3837 l 0.37019,-0.82417 h 8.03222 l -0.43304,1.73216 c -5.6505,22.53214 -11.30099,45.06427 -16.95148,67.5964 l -0.26542,1.05467 H 166.98643 L 361.16368,109.4338 H 45.76271 l 1.57153,-2.20013 C 55.576,95.67426 64.774634,84.80631 74.818404,74.77651 122.8581,26.74381 187.40923,0 255.35485,0 396.38672,0 510.7097,114.32997 510.7097,255.36184 c 0,40.664 -9.54786,80.52478 -28.16166,116.68375 l -0.39114,0.76132 h -22.9093 l 1.16642,-2.07441 c 19.90594,-35.29988 30.20116,-74.85334 30.20116,-115.37066 0,-129.93343 -105.3269,-235.26033 -235.26033,-235.26033 -62.85388,0 -122.50187,24.84402 -166.734976,69.3146 z M 291.97481,143.9095 H 213.0006 c -10.76318,0 -21.8686,0.44701 -32.50606,2.13727 -6.96359,1.10356 -14.79326,2.90557 -21.02347,6.31403 -12.56519,6.87279 -19.64752,21.0095 -23.92206,34.08456 l -0.3143,0.96387 h -7.87857 l 0.13969,-1.52263 c 1.84392,-20.2412 3.66689,-40.48939 5.51081,-60.73059 l 0.11873,-1.26421 H 332.34546 L 139.20891,387.26491 h 334.83894 l -1.3131,2.11631 c -10.44887,16.91657 -22.8604,32.58988 -36.92727,46.64277 -48.0327,47.98382 -112.54891,74.69272 -180.45263,74.69272 C 114.32299,510.71671 0,396.39371 0,255.36184 0,209.18703 12.32073,164.20658 36.00531,124.56931 l 0.41209,-0.67751 h 23.817294 l -1.424854,2.15823 c -25.38182,38.49181 -38.71532,83.20685 -38.71532,129.31181 0,129.93343 105.32691,235.26037 235.26033,235.26037 69.51017,0 134.84357,-30.43868 179.62147,-83.3396 H 98.188704 L 291.97481,143.9095"
     style="fill:#100f0d;fill-opacity:1;fill-rule:evenodd;stroke:none;stroke-width:0.0698452"
     id="path523" />
</svg>
